<svg width="236" height="66" viewBox="0 0 236 66" fill="none" xmlns="http://www.w3.org/2000/svg">
<g clip-path="url(#clip0_116_63)">
<path d="M112.071 42.9308H120.358C122.988 42.9308 124.263 40.6522 124.263 38.5359C124.301 38.0058 124.226 37.4735 124.042 36.9762C123.858 36.479 123.57 36.0287 123.198 35.6567C122.827 35.2847 122.38 35.0001 121.889 34.8226C121.399 34.6451 120.876 34.5791 120.358 34.6291H112.071V42.9308ZM112.071 30.6401H119.325C123.548 30.6401 123.628 22.989 119.404 22.989H112.073V30.6401H112.071ZM119.402 19.1634C120.823 19.1243 122.219 19.5438 123.392 20.3622C124.565 21.1807 125.456 22.3563 125.937 23.7218C126.974 26.4075 126.655 30.0707 123.95 32.1058C125.203 32.5901 126.276 33.4626 127.019 34.6011C127.762 35.7396 128.138 37.0871 128.094 38.4546C128.094 42.606 125.464 46.7574 120.284 46.7574H108.166V19.1634H119.402Z" fill="#E0E5E6"/>
<path d="M156.539 30.6391H143.071L142.035 34.4646H152.639C152.305 36.7912 151.163 38.9176 149.422 40.4565C147.682 41.9954 145.458 42.8443 143.156 42.8486C140.589 42.8341 138.133 41.7805 136.326 39.9188C134.519 38.0571 133.508 35.5393 133.516 32.9178C133.508 30.2962 134.519 27.7785 136.326 25.9168C138.133 24.0551 140.589 23.0015 143.156 22.987C144.709 22.9791 146.241 23.3608 147.617 24.0988C148.992 24.8368 150.169 25.9084 151.045 27.2195H155.587C154.529 24.7747 152.798 22.6963 150.605 21.2368C148.413 19.7774 145.852 18.9996 143.235 18.998C141.445 19.0074 139.674 19.3772 138.024 20.0862C136.374 20.7951 134.876 21.8294 133.618 23.1298C132.359 24.4303 131.364 25.9714 130.689 27.665C130.014 29.3585 129.672 31.1715 129.684 33C129.672 34.828 130.014 36.6404 130.689 38.3335C131.364 40.0266 132.359 41.5673 133.617 42.8674C134.875 44.1676 136.372 45.2017 138.022 45.9108C139.671 46.6199 141.441 46.99 143.231 47C145.021 46.99 146.791 46.6199 148.441 45.9108C150.09 45.2017 151.587 44.1676 152.845 42.8674C154.103 41.5673 155.098 40.0266 155.773 38.3335C156.448 36.6404 156.79 34.828 156.779 33C156.743 32.209 156.663 31.4208 156.539 30.6391Z" fill="#E0E5E6"/>
<path d="M105.776 30.6391H92.3886L91.3522 34.4646H101.955C101.621 36.7911 100.48 38.9176 98.7389 40.4565C96.9983 41.9954 94.7742 42.8443 92.4721 42.8486C89.9055 42.8341 87.4493 41.7804 85.6423 39.9187C83.8353 38.057 82.8249 35.5393 82.8329 32.9178C82.8249 30.2962 83.8353 27.7785 85.6423 25.9168C87.4493 24.0551 89.9055 23.0014 92.4721 22.9869C94.0258 22.979 95.5577 23.3608 96.9332 24.0988C98.3088 24.8368 99.4859 25.9084 100.361 27.2195H104.904C103.845 24.7746 102.115 22.6963 99.9219 21.2368C97.7292 19.7773 95.1688 18.9996 92.5516 18.9979C90.7614 19.0074 88.9905 19.3772 87.3403 20.0861C85.6901 20.7951 84.1928 21.8294 82.9342 23.1298C81.6757 24.4303 80.6804 25.9713 80.0053 27.6649C79.3302 29.3585 78.9886 31.1714 79 33C78.9889 34.828 79.3306 36.6404 80.0055 38.3335C80.6804 40.0266 81.6754 41.5672 82.9336 42.8674C84.1917 44.1676 85.6884 45.2017 87.338 45.9108C88.9876 46.6199 90.7579 46.99 92.5476 47C94.3373 46.99 96.1076 46.6199 97.7573 45.9108C99.4069 45.2017 100.904 44.1676 102.162 42.8674C103.42 41.5672 104.415 40.0266 105.09 38.3335C105.765 36.6404 106.106 34.828 106.095 33C105.936 32.188 105.856 31.376 105.776 30.6391Z" fill="#E0E5E6"/>
</g>
<defs>
<clipPath id="clip0_116_63">
<rect width="77.7778" height="28" fill="white" transform="translate(79 19)"/>
</clipPath>
</defs>
</svg>
