<svg width="236" height="66" viewBox="0 0 236 66" fill="none" xmlns="http://www.w3.org/2000/svg">
<path d="M112.989 16.1267C112.968 16.2006 112.831 16.8235 112.694 17.4993L112.44 18.7452H114.151H115.861L116.094 17.5521C116.231 16.908 116.358 16.2851 116.389 16.1795C116.431 16.0106 116.305 16 114.732 16C113.465 16 113.021 16.0317 112.989 16.1267Z" fill="#E0E5E6"/>
<path d="M164.852 16.1689C164.831 16.2217 162.603 21.7226 159.921 28.406C157.239 35.0789 154.674 41.4667 154.209 42.5964L153.386 44.6342L153.924 45.2677C154.22 45.6055 154.515 45.8695 154.568 45.8484C154.631 45.8273 156.965 41.7623 159.752 36.821C162.54 31.8692 164.852 27.8253 164.894 27.8253C164.936 27.8253 167.259 31.8903 170.057 36.8527C172.866 41.8151 175.188 45.8801 175.22 45.8801C175.262 45.8801 175.537 45.595 175.843 45.2571L176.392 44.6342L173.805 38.2042C166.879 20.9519 164.905 16.0845 164.852 16.1689Z" fill="#E0E5E6"/>
<path d="M134.951 21.3953C130.685 21.8388 127.18 25.2174 125.976 30.032C124.709 35.1211 126.23 38.5737 130.221 39.6718C130.928 39.8724 131.308 39.8935 132.997 39.8935C134.993 39.8829 136.281 39.7246 137.759 39.2917C138.34 39.1227 138.361 39.1016 138.636 38.447C138.889 37.8557 139.332 36.5359 139.332 36.367C139.332 36.3353 138.889 36.462 138.361 36.6732C135.405 37.7818 132.691 38.0141 131.076 37.2961C129.492 36.5782 128.563 34.8783 128.563 32.6822C128.563 31.9642 128.7 30.9928 128.89 30.3804L129.006 30.0426H135.362H141.729L141.909 29.4091C142.173 28.4694 142.289 27.2446 142.183 26.3366C142.025 24.9218 141.497 23.866 140.504 22.9368C139.163 21.7015 137.221 21.163 134.951 21.3953ZM137.801 24.1194C138.995 24.7106 139.533 25.6925 139.385 27.0229C139.354 27.3819 139.29 27.7197 139.248 27.7831C139.195 27.8676 137.633 27.9204 134.391 27.9626C128.911 28.0259 129.418 28.1421 130.104 26.9701C131.371 24.8056 133.536 23.6548 136.133 23.7498C136.978 23.7815 137.21 23.8343 137.801 24.1194Z" fill="#E0E5E6"/>
<path d="M158.475 21.8493C157.123 22.5039 156.3 23.0424 155.17 23.9821C152.752 26.0093 150.999 29.0079 150.303 32.2598C150.017 33.6007 149.965 36.3564 150.197 37.6446C150.408 38.806 151.094 40.8226 151.622 41.8151C152.161 42.8287 152.784 43.8106 152.815 43.6945C153.005 43.0927 156.352 32.3126 157.841 27.5297C158.908 24.0982 159.752 21.2792 159.721 21.2792C159.689 21.2792 159.129 21.5326 158.475 21.8493Z" fill="#E0E5E6"/>
<path d="M170.089 21.5114C170.131 21.6487 171.282 25.3652 172.644 29.7786C174.016 34.192 175.547 39.1227 176.054 40.7276C176.55 42.343 176.983 43.6628 177.015 43.6628C177.142 43.6628 177.881 42.4064 178.388 41.34C180.932 35.9869 179.897 29.5674 175.759 25.0485C174.576 23.7604 172.591 22.3772 170.86 21.6381C170.047 21.2792 170.036 21.2792 170.089 21.5114Z" fill="#E0E5E6"/>
<path d="M65.6881 21.6065C65.3397 21.6593 64.4105 21.8282 63.6292 21.976L62.2038 22.24L61.7076 23.5914C61.4225 24.3411 61.2008 24.964 61.2008 24.9851C61.2008 25.0168 61.8343 24.8795 62.6051 24.6895C66.6595 23.6653 69.4997 23.5914 70.7244 24.4678C71.6113 25.0907 71.4846 26.3472 70.4605 27.0968C69.4257 27.857 68.1587 28.3427 64.9068 29.2401C62.1299 30.0109 61.961 30.0742 60.694 30.6972C58.6774 31.6791 57.3576 33.2523 57.0725 35.005C56.8402 36.4304 57.1675 37.6234 58.0333 38.4259C58.6457 38.996 59.1842 39.2811 60.2294 39.5767C61.0002 39.7879 61.3275 39.7985 66.1843 39.8407C71.0728 39.8724 71.3157 39.8618 71.3685 39.6823C71.4002 39.5767 71.643 38.4892 71.9069 37.275C72.1709 36.0503 72.8572 32.8405 73.4485 30.1165C74.0292 27.403 74.5043 24.964 74.5043 24.7001C74.5043 23.4331 73.269 22.3772 71.1256 21.8071C70.376 21.6065 69.9009 21.5642 68.2749 21.5326C67.1979 21.522 66.0365 21.5537 65.6881 21.6065ZM70.3443 30.0109C70.3126 30.1165 69.9537 31.753 69.5313 33.6641L68.7606 37.1166L68.2538 37.275C67.3563 37.539 65.667 37.6762 64.1043 37.6129C61.7604 37.5073 60.6835 37.1166 60.2506 36.2086C59.8388 35.3745 60.1555 34.2342 61.0319 33.379C61.6126 32.8194 62.2672 32.5554 65.3186 31.6474C67.3669 31.035 69.299 30.3382 69.9431 30.0003C70.3232 29.7892 70.4077 29.7892 70.3443 30.0109Z" fill="#E0E5E6"/>
<path d="M97.2575 21.5959C95.1564 21.8282 92.6647 22.3878 92.3901 22.6834C92.3268 22.7573 91.2182 27.3924 89.9195 32.9989C88.6314 38.6054 87.2271 44.6975 86.7942 46.5452C86.3613 48.3929 86.0129 49.9239 86.0129 49.945C86.0129 49.9767 86.6253 49.9978 87.3855 49.9978H88.7475L88.8531 49.5966C88.9164 49.3854 89.5816 46.7142 90.3418 43.6628C91.102 40.6114 91.7672 37.9719 91.8305 37.8029L91.9256 37.4756L92.6963 38.2253C94.0267 39.5239 95.5893 40.0519 97.7326 39.9357C100.224 39.809 102.209 38.9432 103.888 37.2645C105.651 35.4907 106.834 32.8616 107.298 29.6836C107.573 27.8359 107.372 26.2944 106.686 24.869C106.243 23.9504 105.113 22.8312 104.142 22.3561C102.896 21.7437 102.03 21.5748 99.9499 21.5431C98.9363 21.522 97.7221 21.5431 97.2575 21.5959ZM101.534 24.2038C103.001 24.7423 103.688 25.3019 104.237 26.3999C104.564 27.0651 104.627 27.308 104.68 28.1209C104.828 30.7077 103.339 34.2237 101.291 36.1242C99.5276 37.7501 97.3314 38.2569 95.5788 37.4334C94.0689 36.7154 92.8758 34.7938 92.8758 33.0517C92.8758 32.7666 93.2137 30.9506 93.6255 29.0395C94.0267 27.1179 94.3962 25.418 94.4279 25.2596C94.4912 24.9218 94.8608 24.7106 95.9377 24.3622C97.078 23.9926 97.6059 23.9293 99.3164 23.961C100.626 23.9926 101.069 24.0349 101.534 24.2038Z" fill="#E0E5E6"/>
<path d="M124.741 21.6593C123.949 21.8493 122.904 22.3772 121.88 23.1163C121.426 23.4436 121.035 23.7076 121.014 23.7076C120.993 23.7076 121.098 23.3486 121.246 22.9051C121.394 22.4723 121.489 22.0922 121.468 22.071C121.447 22.0499 120.739 22.0182 119.905 22.0077L118.374 21.9971L118.089 23.3486C117.931 24.0982 117.107 27.9626 116.262 31.9431C115.418 35.913 114.732 39.2072 114.732 39.2494C114.732 39.2917 115.397 39.3339 116.21 39.3339C117.656 39.3339 117.688 39.3339 117.741 39.0911C117.772 38.9644 118.3 36.462 118.902 33.5268C120.148 27.5508 120.201 27.3924 121.278 26.2099C122.925 24.415 125.501 23.4647 126.948 24.1299C127.201 24.2355 127.412 24.2988 127.444 24.2566C127.518 24.1194 127.929 22.0394 127.929 21.7648V21.4903L126.641 21.5009C125.923 21.5009 125.068 21.5748 124.741 21.6593Z" fill="#E0E5E6"/>
<path d="M82.2436 21.8493C80.6387 22.1555 79.4351 22.7045 78.601 23.5175C77.1967 24.8901 77.0806 27.1285 78.3264 28.9867C78.5693 29.3563 79.6357 30.5494 80.6915 31.6369C82.7926 33.8013 83.2677 34.4982 83.2677 35.3956C83.2677 36.2192 82.8771 36.7049 81.8424 37.18C81.2933 37.4334 81.0399 37.4862 79.963 37.5179C78.5587 37.5707 77.5029 37.4334 76.2781 37.0533C75.5496 36.821 75.4229 36.7471 75.1167 36.3037L74.7683 35.818L74.7049 36.4937C74.6099 37.4123 74.5993 38.6054 74.6733 38.9855C74.7366 39.3022 74.7577 39.3128 75.7502 39.4712C78.4426 39.9146 80.4487 39.9252 82.138 39.4817C84.9043 38.7637 86.4458 36.8738 86.3085 34.3398C86.2241 32.7138 85.5906 31.7847 83.2361 29.842C80.9766 27.9837 80.417 27.2657 80.417 26.2416C80.417 25.3758 80.7971 24.8584 81.7157 24.4467C83.0143 23.8659 86.3613 24.0877 87.66 24.8268L88.0929 25.0696L88.1562 24.0454C88.1985 23.4858 88.2513 22.7996 88.2935 22.5356L88.3568 22.0499L87.5333 21.9127C86.2874 21.7121 83.1621 21.6804 82.2436 21.8493Z" fill="#E0E5E6"/>
<path d="M112.05 21.9866C112.018 22.0922 111.828 22.9579 111.627 23.9187C110.476 29.3246 109.178 35.4273 108.777 37.2433L108.323 39.3339H109.832C111.321 39.3339 111.353 39.3339 111.406 39.0911C111.437 38.9644 111.575 38.3097 111.722 37.6446C112.124 35.7229 113.823 27.7303 114.468 24.7212C114.784 23.2219 115.048 21.9443 115.048 21.8915C115.048 21.8493 114.383 21.8071 113.581 21.8071C112.271 21.8071 112.102 21.8282 112.05 21.9866Z" fill="#E0E5E6"/>
<path d="M164.44 34.551C164.176 34.8888 162.096 37.6762 159.816 40.7593C157.535 43.8317 155.624 46.4185 155.561 46.4924C155.434 46.6508 155.856 47.0415 156.733 47.5799L157.292 47.9178L157.757 47.4532C158.01 47.1998 159.699 45.4155 161.505 43.5044C163.321 41.5828 164.841 40.0202 164.894 40.0202C164.947 40.0202 166.657 41.7729 168.695 43.9268C170.733 46.0701 172.433 47.8439 172.475 47.865C172.57 47.8967 174.122 46.9042 174.217 46.7458C174.259 46.6719 165.95 35.2373 164.936 33.9703C164.915 33.9491 164.693 34.2131 164.44 34.551Z" fill="#E0E5E6"/>
<path d="M96.0539 43.3566C94.8397 43.5678 94.1745 44.2646 94.2801 45.2043C94.3434 45.785 94.6285 46.144 95.6738 46.9359C96.9197 47.8756 97.1097 48.3718 96.4234 48.8681C95.9272 49.2165 94.713 49.2059 93.9739 48.8364L93.4248 48.5619L93.3721 49.0476C93.2981 49.6388 93.3826 49.7233 94.185 49.8817C95.7266 50.1773 96.983 49.9133 97.6693 49.1531C97.9966 48.7942 98.0494 48.6569 98.0494 48.224C98.0494 47.58 97.7854 47.1576 97.0252 46.598C96.0433 45.8589 95.5154 45.3099 95.5154 45.0037C95.5154 44.6553 95.8744 44.3174 96.3389 44.233C96.7085 44.1591 97.9121 44.233 98.3239 44.3597C98.5351 44.4125 98.5562 44.3702 98.5879 43.9373C98.6301 43.5361 98.5984 43.4516 98.4189 43.4094C97.9333 43.2933 96.5818 43.2616 96.0539 43.3566Z" fill="#E0E5E6"/>
<path d="M109.505 43.3355C108.323 43.5255 107.657 44.1379 107.657 45.0354C107.657 45.6689 107.911 46.0595 108.734 46.6719C109.093 46.957 109.579 47.3477 109.801 47.5588C110.424 48.1501 110.308 48.6886 109.505 49.0053C108.766 49.2798 107.974 49.1531 106.792 48.5408C106.739 48.5196 106.707 48.7625 106.707 49.0898C106.707 49.6071 106.728 49.681 106.95 49.7338C107.911 49.9556 108.217 49.9978 108.84 49.9978C109.759 49.9978 110.593 49.6916 111.026 49.1954C111.406 48.773 111.511 48.4352 111.427 47.9284C111.342 47.4005 111.004 46.9887 110.139 46.3446C109.22 45.6689 108.924 45.3205 108.924 44.9192C108.924 44.687 109.009 44.5603 109.273 44.3913C109.568 44.2013 109.727 44.1802 110.561 44.233C111.089 44.2541 111.617 44.3174 111.754 44.3597C111.976 44.423 111.986 44.3913 111.986 43.9479C111.986 43.5783 111.944 43.4516 111.807 43.4094C111.427 43.3038 110.012 43.2616 109.505 43.3355Z" fill="#E0E5E6"/>
<path d="M139.66 43.3566C138.541 43.5467 137.854 44.1907 137.854 45.0354C137.854 45.6478 138.16 46.0807 139.163 46.8514C140.684 48.0234 140.832 48.4985 139.786 48.9631C139.163 49.2376 138.277 49.1743 137.538 48.8153L137.031 48.5619L136.978 49.0476C136.904 49.6388 136.988 49.7233 137.791 49.8817C139.332 50.1773 140.589 49.9133 141.275 49.1531C141.592 48.7942 141.655 48.6569 141.655 48.2451C141.655 47.4849 141.275 46.957 140.167 46.2179C139.544 45.7956 139.121 45.2994 139.121 44.9826C139.121 44.6447 139.491 44.3174 139.945 44.233C140.314 44.1591 141.518 44.233 141.951 44.3597C142.162 44.423 142.183 44.3913 142.183 43.9479C142.183 43.6417 142.13 43.4516 142.035 43.42C141.729 43.3038 140.198 43.2616 139.66 43.3566Z" fill="#E0E5E6"/>
<path d="M100.573 44.2118C100.795 44.6975 101.175 45.5316 101.428 46.0807L101.893 47.0731L101.65 48.2451C101.512 48.8892 101.375 49.5227 101.344 49.6494C101.301 49.8817 101.333 49.8922 101.924 49.8922H102.547L102.843 48.488L103.138 47.0943L104.881 45.2466L106.623 43.3989L105.958 43.3672L105.282 43.3249L104.015 44.6658L102.737 46.0068L102.125 44.6764L101.502 43.3461H100.837H100.172L100.573 44.2118Z" fill="#E0E5E6"/>
<path d="M113.887 43.5255C113.887 43.6311 113.855 43.8212 113.824 43.9479C113.76 44.1907 113.771 44.1907 114.827 44.1907C115.534 44.1907 115.893 44.233 115.893 44.3069C115.893 44.3702 115.629 45.6372 115.312 47.1154C114.995 48.6041 114.732 49.8289 114.732 49.85C114.732 49.8711 115.017 49.8922 115.354 49.8922H115.988L116.104 49.3326C116.167 49.037 116.442 47.7594 116.716 46.5136L117.213 44.2435L118.342 44.2118L119.483 44.1802L119.546 43.8951C119.578 43.7367 119.62 43.5467 119.652 43.4728C119.683 43.3777 119.06 43.3461 116.79 43.3461C114.098 43.3461 113.887 43.3566 113.887 43.5255Z" fill="#E0E5E6"/>
<path d="M120.739 46.5875L120.053 49.8394L122.418 49.8711C123.727 49.8817 124.815 49.8711 124.836 49.85C124.868 49.8289 124.91 49.6071 124.941 49.3749L125.005 48.942H123.231C121.763 48.942 121.478 48.9209 121.521 48.7942C121.552 48.7097 121.637 48.3401 121.711 47.9812C121.922 46.8725 121.795 46.9359 123.611 46.9359C124.783 46.9359 125.205 46.9042 125.226 46.7986C125.258 46.7353 125.3 46.5452 125.332 46.3763L125.395 46.0912H123.759C122.861 46.0912 122.122 46.0595 122.122 46.0068C122.122 45.9645 122.217 45.5527 122.312 45.0882L122.502 44.2435L124.371 44.2118C126.061 44.1907 126.24 44.1696 126.24 44.0007C126.24 43.9056 126.272 43.7156 126.303 43.5783L126.367 43.3461H123.907H121.436L120.739 46.5875Z" fill="#E0E5E6"/>
<path d="M128.31 43.5255C128.278 43.6311 128.183 44.0957 128.088 44.5603C127.993 45.0248 127.708 46.3657 127.444 47.5483C127.19 48.7308 126.979 49.7444 126.979 49.7972C126.979 49.85 127.243 49.8922 127.56 49.8922C127.877 49.8922 128.141 49.8605 128.141 49.8289C128.141 49.7972 128.288 49.1003 128.457 48.2768C128.637 47.4532 128.837 46.5136 128.901 46.1968C128.964 45.8801 129.049 45.5739 129.091 45.5316C129.144 45.4683 129.988 48.2874 130.316 49.5966C130.379 49.8711 130.421 49.8922 130.928 49.8922H131.466L132.945 47.7806C133.758 46.6191 134.454 45.6689 134.486 45.6689C134.539 45.6689 134.159 47.6539 133.747 49.4699L133.652 49.8922H134.254H134.856L135.521 46.7458C135.89 45.0248 136.218 43.5467 136.239 43.4728C136.281 43.3777 136.091 43.3461 135.51 43.3461H134.729L132.987 45.8695C132.037 47.2632 131.234 48.4035 131.203 48.4035C131.171 48.4141 130.844 47.2738 130.474 45.8801L129.798 43.3461H129.08C128.489 43.3461 128.352 43.3777 128.31 43.5255Z" fill="#E0E5E6"/>
<path d="M161.779 46.0701L158.728 48.6675L159.288 48.9209C162.54 50.3462 167.227 50.3462 170.49 48.9103L171.05 48.6675L168.948 46.862C165.485 43.9162 164.936 43.4517 164.884 43.4517C164.852 43.4622 163.458 44.6342 161.779 46.0701Z" fill="#E0E5E6"/>
</svg>
