<svg width="236" height="66" viewBox="0 0 236 66" fill="none" xmlns="http://www.w3.org/2000/svg">
<path d="M2 41.5162C5.03868 34.0195 8.07702 26.5141 11.115 19C11.6195 19.0073 12.1199 19.0156 12.6244 19.0156C15.6054 26.5103 18.5865 34.0105 21.5675 41.5162C21.0702 41.5089 20.5739 41.5089 20.0766 41.5089C19.1212 39.0982 18.1842 36.6791 17.2329 34.2714C13.6097 34.2829 9.98658 34.2714 6.36343 34.2787C5.43679 36.702 4.44426 39.1013 3.4888 41.5162H2ZM6.81542 33.1118C10.141 33.1274 13.4656 33.1118 16.7912 33.1233C15.1634 28.8347 13.5191 24.5606 11.9109 20.2637C10.1904 24.5408 8.50911 28.8305 6.81542 33.1118ZM110.232 19.0073C111.631 19 113.03 19.0073 114.429 19C117.364 26.4947 120.253 34.008 123.159 41.5162H118.955C118.248 39.5145 117.529 37.517 116.823 35.5153H107.811C107.09 37.5128 106.369 39.5073 105.686 41.5162H101.556C104.453 34.0216 107.345 26.52 110.232 19.0115M112.291 22.7671C111.122 26.0127 109.975 29.2708 108.825 32.5237C111.141 32.531 113.45 32.5164 115.754 32.5351C114.58 29.2895 113.515 25.9971 112.294 22.7671H112.291ZM160.709 41.5152V19H164.332V41.5162L160.709 41.5152ZM195.112 19H198.731C198.731 20.1284 198.731 21.2609 198.738 22.3892C197.527 22.374 196.316 22.374 195.107 22.3892C195.114 21.2609 195.114 20.1284 195.114 19H195.112ZM185.743 20.2637H189.387V25.182H192.628V27.8885H189.387V36.9299C189.406 37.5711 189.402 38.4445 190.101 38.7463C190.938 38.9347 191.8 38.9766 192.65 38.8702C192.628 39.7592 192.624 40.6481 192.619 41.536C190.804 41.6901 188.789 42.0117 187.131 41.0572C185.961 40.3775 185.792 38.9046 185.755 37.6763C185.728 34.4192 185.755 31.158 185.748 27.8999H182.98C182.988 26.9995 182.996 26.0949 182.996 25.1935H185.748V20.271L185.743 20.2637ZM25.0774 26.2261C28.2424 23.7279 33.692 24.8229 35.1757 28.7649C35.1365 27.6084 35.153 26.4457 35.153 25.2872H36.4029V40.7668C36.3957 42.8653 35.8181 45.2219 34.0143 46.4783C32.8318 47.1686 31.5141 47.5886 30.1539 47.7087C28.7936 47.8288 27.4239 47.6462 26.1409 47.1737C25.215 46.8181 24.4159 46.1898 23.8469 45.3702C23.2779 44.5505 22.9652 43.5771 22.9492 42.5759H24.1724C24.2606 43.3542 24.5482 44.0958 25.0067 44.7274C25.4651 45.3591 26.0786 45.8589 26.7865 46.1775C29.3667 47.1435 32.9167 46.7729 34.4302 44.1685C35.5844 42.0357 35.0037 39.5312 35.187 37.2131C33.6426 40.8646 28.8581 41.9274 25.5932 40.0569C24.6074 39.4186 23.7874 38.5505 23.2021 37.5255C22.6169 36.5005 22.2833 35.3485 22.2295 34.1663C21.9042 31.2954 22.7114 28.0383 25.0887 26.2292M27.3703 26.2563C23.5062 27.674 22.6341 32.7746 23.9881 36.2637C24.5426 37.685 25.6329 38.8253 27.019 39.434C28.4051 40.0426 29.9736 40.0697 31.3795 39.5093C32.3788 39.0714 33.2447 38.3723 33.8882 37.4839C34.5316 36.5956 34.9295 35.5499 35.0408 34.4546C35.2555 33.2975 35.2283 32.1078 34.9611 30.9619C34.6939 29.816 34.1925 28.7393 33.4892 27.801C32.7224 26.9726 31.7352 26.386 30.6463 26.1117C29.5574 25.8375 28.4133 25.8873 27.3518 26.2552L27.3703 26.2563ZM41.0536 27.6938C41.6654 26.8931 42.4365 26.231 43.3172 25.7505C44.1979 25.2699 45.1685 24.9815 46.1663 24.9039C47.1642 24.8263 48.167 24.9612 49.11 25.3C50.053 25.6387 50.9153 26.1737 51.641 26.8704C52.4219 27.7897 53.0157 28.8558 53.3883 30.0076C53.7609 31.1593 53.905 32.3741 53.8124 33.5823C49.3944 33.5709 44.9836 33.5823 40.5615 33.5823C40.5527 35.337 41.0431 37.0573 41.9741 38.5381C44.1146 41.7265 49.6487 41.6484 51.5555 38.2561C51.9432 37.5343 52.2631 36.7774 52.511 35.9952C52.8198 35.9952 53.4283 36.0025 53.7341 36.0025C53.4483 37.4959 52.7636 38.8819 51.7542 40.01C49.9082 41.8649 47.0263 42.2126 44.58 41.6755C43.4519 41.3729 42.4215 40.7778 41.5908 39.9489C40.7601 39.12 40.1579 38.0862 39.8438 36.9497C39.3598 35.4113 39.2178 33.7838 39.4278 32.1834C39.6378 30.5831 40.1947 29.0493 41.0588 27.6917M42.7936 27.4596C41.4693 28.8186 40.6777 30.6172 40.5656 32.5216C44.581 32.5216 48.5964 32.5414 52.6047 32.5216C52.5286 30.6758 51.822 28.9138 50.6052 27.5356C49.5496 26.5301 48.1579 25.9638 46.7076 25.9495C45.2574 25.9352 43.8551 26.4741 42.7803 27.4586L42.7936 27.4596ZM57.7918 28.9013C59.0994 25.1539 63.991 23.8164 67.2321 25.7868C67.9703 26.3558 68.5587 27.0997 68.9452 27.9529C69.3318 28.8061 69.5048 29.7424 69.4489 30.6792C69.4561 34.2964 69.4489 37.9053 69.4489 41.5256H68.2247C68.2133 37.9167 68.2556 34.2995 68.2133 30.6948C68.2608 29.8774 68.0938 29.0619 67.7293 28.3307C67.3648 27.5996 66.8158 26.9788 66.1377 26.5311C65.0406 25.9872 63.8004 25.8116 62.5978 26.0299C61.3951 26.2482 60.2928 26.849 59.4515 27.7448C58.3382 29.1084 57.7528 30.8344 57.8041 32.6018C57.7846 35.5767 57.8041 38.5444 57.7969 41.5162H56.5511V25.2872H57.8041C57.8041 26.4853 57.8041 27.6813 57.7887 28.8888L57.7918 28.9013ZM74.4537 27.0453C75.7081 25.8661 77.3035 25.1247 79.0055 24.9301C80.7074 24.7354 82.4263 25.0977 83.9095 25.9638C84.6374 26.448 85.25 27.0894 85.7031 27.8418C86.1562 28.5942 86.4386 29.4388 86.5299 30.3148H85.3047C85.1387 29.0638 84.5171 27.9202 83.5615 27.1078C82.3162 26.2193 80.7955 25.8151 79.279 25.9692C77.7624 26.1233 76.3518 26.8255 75.3062 27.9467C74.2572 29.3434 73.6201 31.0114 73.4686 32.7583C73.317 34.5053 73.6571 36.26 74.4496 37.8199C74.8834 38.5759 75.4725 39.2292 76.1771 39.7357C76.8817 40.2421 77.6855 40.59 78.5343 40.7559C79.3831 40.9219 80.2573 40.9019 81.0978 40.6975C81.9384 40.493 82.7258 40.1088 83.4071 39.5707C84.4915 38.6009 85.2176 37.2873 85.4663 35.8453C85.8781 35.8453 86.29 35.8338 86.7018 35.8224C86.4706 37.3204 85.818 38.7196 84.8218 39.8528C81.9245 42.8517 76.3523 42.604 73.8905 39.1648C71.5328 35.61 71.5472 30.293 74.4373 27.0474L74.4537 27.0453ZM128.115 27.6636C128.999 26.255 130.385 25.2447 131.987 24.8427C133.002 24.6097 134.057 24.6223 135.066 24.8795C136.076 25.1367 137.011 25.6313 137.796 26.3229C138.72 27.428 139.189 28.8501 139.106 30.2951C139.106 34.0351 139.099 37.7793 139.106 41.5246H135.483C135.476 38.0468 135.506 34.5691 135.476 31.0914C135.476 29.6809 134.949 27.9457 133.385 27.6365C132.812 27.4802 132.212 27.4543 131.628 27.5605C131.044 27.6667 130.49 27.9025 130.007 28.2509C129.524 28.5993 129.123 29.0517 128.834 29.5754C128.544 30.0991 128.373 30.6812 128.333 31.2798C128.248 34.6805 128.333 38.0999 128.302 41.5194H124.683V25.182H128.126C128.126 26.0085 128.126 26.8319 128.11 27.6553L128.115 27.6636ZM145.824 25.3455C148.085 24.5725 150.522 24.4971 152.826 25.129C153.747 25.3249 154.585 25.8072 155.223 26.5084C155.86 27.2096 156.264 28.0946 156.38 29.0397C156.483 32.1542 156.319 35.2853 156.449 38.408C156.399 39.374 157.507 39.1617 158.13 39.2585C158.13 40.0506 158.119 40.8428 158.13 41.6307C156.372 42.2105 153.628 42.3885 153.047 40.1235C151.27 41.4886 149.062 42.1508 146.836 41.9857C145.997 41.9614 145.174 41.7487 144.426 41.3631C143.678 40.9774 143.024 40.4285 142.512 39.756C141.11 37.5805 141.709 34.1652 144.129 32.99C146.537 31.8814 149.288 32.1167 151.799 31.3984C153.412 31.0039 153.297 28.539 151.891 27.9207C149.788 26.9933 146.36 27.3638 145.89 30.1067C144.694 30.091 143.493 30.091 142.298 30.091C142.376 29.0396 142.75 28.0327 143.376 27.1892C144.001 26.3457 144.853 25.7009 145.829 25.3309M146.697 34.771C145.298 35.3894 144.882 37.746 146.304 38.5652C148.284 39.7477 151.33 39.2991 152.553 37.212C153.011 35.991 152.725 34.6388 152.805 33.3606C150.867 34.2381 148.617 33.8634 146.69 34.7638L146.697 34.771ZM203.531 27.7844C205.848 24.4222 210.697 23.959 214.157 25.6359C215.062 26.1283 215.836 26.8358 216.411 27.6974C216.986 28.5591 217.346 29.5491 217.459 30.5824C216.258 30.5938 215.05 30.5897 213.847 30.598C213.652 29.751 213.228 28.9752 212.624 28.3569C212.136 27.9824 211.574 27.7184 210.976 27.5827C210.378 27.447 209.758 27.4428 209.159 27.5704C208.559 27.6979 207.994 27.9542 207.501 28.3219C207.008 28.6897 206.599 29.1602 206.302 29.7017C205.75 30.894 205.477 32.1984 205.504 33.5144C205.53 34.8303 205.855 36.1225 206.454 37.2911C206.759 37.7861 207.165 38.2087 207.647 38.53C208.128 38.8513 208.672 39.0637 209.242 39.1527C209.811 39.2417 210.394 39.2051 210.948 39.0455C211.503 38.8859 212.017 38.607 212.455 38.228C213.163 37.4423 213.639 36.472 213.83 35.4268H217.442C217.011 37.4244 216.219 39.5229 214.456 40.7012C210.825 43.1203 205.047 42.2157 202.963 38.1311C202.165 36.5021 201.798 34.6917 201.898 32.8766C201.999 31.0615 202.563 29.3038 203.536 27.775L203.531 27.7844ZM220.26 27.2639C220.906 26.4658 221.723 25.8255 222.648 25.3906C223.573 24.9557 224.583 24.7375 225.604 24.7521C227.82 24.6054 230.32 24.9062 231.971 26.5686C232.753 27.461 233.29 28.5459 233.526 29.7142C232.265 29.7257 231.004 29.7298 229.743 29.7142C229.055 27.3201 226.004 27.0401 224.086 27.9759C223.841 28.1053 223.637 28.3023 223.499 28.5441C223.36 28.7859 223.292 29.0625 223.303 29.3417C223.314 29.621 223.403 29.8914 223.56 30.1215C223.717 30.3516 223.935 30.532 224.189 30.6417C226.66 31.8971 229.654 31.6275 232.062 33.0952C232.575 33.4153 233.013 33.8433 233.348 34.35C233.682 34.8567 233.904 35.4302 234 36.0316V37.2599C233.732 39.5395 231.707 41.1051 229.612 41.5953C226.784 42.3021 223.413 42.1908 221.066 40.2317C220.013 39.192 219.374 37.798 219.27 36.3137C220.473 36.2981 221.678 36.2981 222.893 36.3064C223.21 37.2255 223.52 38.3154 224.513 38.7141C225.352 39.093 226.268 39.261 227.185 39.2037C228.102 39.1464 228.991 38.8656 229.777 38.3851C229.992 38.1795 230.152 37.9227 230.244 37.6382C230.335 37.3537 230.354 37.0505 230.3 36.7564C230.246 36.4623 230.119 36.1867 229.932 35.9548C229.745 35.7229 229.504 35.5421 229.23 35.4289C226.745 34.2391 223.765 34.4921 221.421 32.9484C220.547 32.3262 219.94 31.3913 219.722 30.3331C219.504 29.2749 219.692 28.1726 220.248 27.2493L220.26 27.2639ZM87.4225 25.2872H88.864C90.8624 30.2337 92.9154 35.1635 94.918 40.1141C96.7637 35.1683 98.6263 30.225 100.506 25.2841H101.854C99.5117 31.3159 97.1611 37.3532 94.8027 43.3961C94.2107 44.7369 93.7206 46.3867 92.2575 47.005C91.2418 47.2597 90.196 47.3704 89.1502 47.334V46.3034C90.396 46.1994 91.8642 46.1608 92.6889 45.0439C93.3351 43.8924 93.859 42.6751 94.2518 41.4121C91.9867 36.0333 89.7141 30.657 87.4339 25.283L87.4225 25.2872ZM166.057 25.1831C167.403 25.1831 168.747 25.1831 170.093 25.1945C171.481 29.2979 172.921 33.3866 174.347 37.4712C175.708 33.3752 177.122 29.2906 178.475 25.1883H182.308C180.191 30.8683 178.073 36.5524 175.955 42.2407C175.235 44.0103 174.675 46.0276 173.051 47.1789C171.457 48.3239 169.408 47.9908 167.594 47.8201V44.7837C168.596 44.9076 169.715 45.2469 170.659 44.6983C171.689 43.9645 171.833 42.5728 172.28 41.4715C170.177 36.0587 168.125 30.6136 166.05 25.1883L166.057 25.1831ZM195.116 25.1831H198.732V41.5162H195.113V25.182L195.116 25.1831Z" fill="#E0E5E6"/>
</svg>
