<svg width="236" height="66" viewBox="0 0 236 66" fill="none" xmlns="http://www.w3.org/2000/svg">
<g clip-path="url(#clip0_113_35)">
<path d="M54.1969 40.5568C53.3926 40.555 52.5895 40.4969 51.7937 40.383C50.6389 40.192 49.4968 39.9329 48.374 39.6071L48 39.5073L48.0388 39.1298C48.141 38.1313 48.1962 37.2486 48.2054 36.5166L48.2115 35.7897L48.8736 36.1142C49.7956 36.5819 50.7668 36.9502 51.7702 37.2126C52.5982 37.4185 53.4488 37.5248 54.3032 37.5292C55.0572 37.532 55.8057 37.4028 56.5132 37.1477C57.1224 36.945 57.6677 36.5917 58.0959 36.1222C58.4653 35.7029 58.702 35.1877 58.7774 34.6393C58.8242 34.3431 58.8163 34.0411 58.7539 33.7476C58.6786 33.4448 58.5496 33.1572 58.3728 32.8979C58.033 32.4326 57.6485 32.0003 57.2243 31.6067C56.6327 31.0286 55.7939 30.2327 54.7343 29.2432L53.6554 28.2287C53.2561 27.8537 52.8788 27.4569 52.5253 27.0404C52.2156 26.6785 51.9377 26.2917 51.6946 25.8841C51.4979 25.5573 51.3344 25.2124 51.2062 24.8546C51.0938 24.5116 51.0252 24.1565 51.0019 23.7971C50.9728 23.408 50.9869 23.0169 51.0438 22.6308C51.2003 21.6062 51.6298 20.6399 52.2893 19.8288C53.032 18.922 53.9957 18.2116 55.0919 17.7628C56.498 17.2141 58.0048 16.9548 59.5181 17.0009C61.0434 17.0297 62.5629 17.1938 64.0578 17.4912L64.4787 17.5691L64.4317 17.9855C64.3561 18.6575 64.3112 19.4973 64.2989 20.4819L64.2907 21.123L63.6777 20.9013C62.2989 20.3759 60.8363 20.0916 59.3567 20.0615C58.5814 20.0416 57.8106 20.1832 57.0956 20.4769C56.5335 20.7113 56.0337 21.0682 55.6345 21.5204C55.3167 21.87 55.1045 22.299 55.0214 22.7596C54.9832 23.0048 54.9832 23.2543 55.0214 23.4995C55.0605 23.7348 55.1389 23.9621 55.2534 24.1725C55.4578 24.5489 55.702 24.9033 55.9819 25.23C56.3937 25.7024 56.8324 26.1518 57.2958 26.5761C57.445 26.7069 57.9487 27.1602 58.9736 28.0869C59.9524 28.9716 60.6727 29.6706 61.1192 30.1628C61.521 30.5994 61.8767 31.0744 62.1808 31.5808C62.4443 32.0384 62.6313 32.5343 62.7346 33.0497C62.8418 33.6116 62.8515 34.1871 62.7632 34.7522C62.6315 35.6714 62.2909 36.5501 61.7663 37.3239C61.2417 38.0977 60.5465 38.7468 59.7317 39.2237C58.9103 39.709 58.0128 40.0589 57.0751 40.2592C56.1295 40.4592 55.1645 40.559 54.1969 40.5568Z" fill="#E0E5E6"/>
<path d="M64.0241 48C63.0635 47.9902 62.1077 47.8668 61.1775 47.6325L60.8045 47.5417L60.827 47.1662C60.8801 46.2805 60.8965 45.5206 60.8781 44.9075L60.8546 44.1426L61.5514 44.4901C61.9763 44.7096 62.4297 44.8718 62.8991 44.9724C63.2605 45.0495 63.6287 45.0923 63.9985 45.1002C64.3868 45.098 64.7719 45.0304 65.1367 44.9005C65.4776 44.7875 65.794 44.6135 66.0696 44.3872C66.3967 44.0943 66.695 43.772 66.9605 43.4246C67.2957 43.0003 67.6666 42.493 68.061 41.9158C68.4247 41.3836 68.7905 40.7845 69.1491 40.1324L67.0627 30.5344L65.3574 22.9943L65.95 23.0103C66.7245 23.0312 67.2783 23.0422 67.5389 23.0422C67.8454 23.0422 68.3563 23.0312 69.0357 23.0103L69.473 22.9963L69.5119 23.4217C69.5793 24.1586 69.6447 24.7268 69.707 25.1102C69.7693 25.4937 69.9195 26.3085 70.1515 27.5237L71.5911 34.896C71.6739 35.3414 71.7546 35.8077 71.8333 36.294L73.6877 33.0267L78.2968 25.1652C78.4225 24.9435 78.5533 24.7018 78.682 24.4542C78.8108 24.2065 79.0161 23.8051 79.2951 23.2559L79.4279 22.9963L79.7242 23.0053C80.4088 23.0263 80.8961 23.0372 81.172 23.0372C81.3334 23.0372 81.7278 23.0313 82.6965 23.0053L83.5292 22.9823L83.1103 23.6813C82.5401 24.6379 81.1986 26.8208 79.011 30.3546L70.9505 43.6054C70.5035 44.3448 69.9939 45.0462 69.427 45.7023C69.0836 46.0729 68.7045 46.4103 68.2949 46.7099C67.9653 46.9571 67.6086 47.1678 67.2313 47.338C66.7542 47.5472 66.2564 47.7081 65.7457 47.8183C65.1796 47.9356 64.6027 47.9964 64.0241 48Z" fill="#E0E5E6"/>
<path d="M94.4598 39.6511C94.7561 38.368 95.0218 37.1128 95.2496 35.9215L96.0108 32.171C96.2611 30.8958 96.4358 29.9242 96.5288 29.2862C96.668 28.6146 96.6208 27.9188 96.3919 27.2711C96.156 26.7811 95.737 26.398 95.221 26.2006C94.5277 25.9097 93.7786 25.7674 93.0242 25.7833C91.9037 25.7649 90.7997 26.0485 89.8333 26.6031C88.9486 27.144 88.2149 27.8909 87.6979 28.7769C87.1924 29.7415 86.8259 30.7697 86.6087 31.8325C86.2 33.4991 85.6891 36.1872 85.0996 39.8209L85.0352 40.2203L84.6265 40.2063C84.0196 40.1853 83.5445 40.1744 83.2124 40.1744C82.8804 40.1744 82.3613 40.1853 81.6716 40.2063L81.078 40.2243L81.2047 39.6571C82.6964 32.9798 83.7662 27.5117 84.3833 23.4027L84.4416 23.0113L86.3369 23.0312C86.6997 23.0312 87.1829 23.0263 87.7674 23.0153L88.3477 23.0043L87.939 24.9395C88.0753 24.8063 88.2214 24.6732 88.3773 24.54C88.7366 24.2382 89.1245 23.9707 89.536 23.7412C90.0126 23.4786 90.5187 23.2705 91.0441 23.1211C91.5897 22.961 92.1467 22.8405 92.7106 22.7606C93.2564 22.6837 93.8072 22.6447 94.3586 22.6438C95.3115 22.6396 96.2607 22.7585 97.1817 22.9973C98.0281 23.1967 98.8015 23.6211 99.4163 24.2235C99.9553 24.7561 100.312 25.4388 100.438 26.1777C100.548 26.899 100.548 27.6322 100.438 28.3535C100.418 28.4923 100.375 28.7529 100.303 29.1693C100.236 29.5618 100.14 30.075 100.01 30.7381L98.7062 37.4733C98.5938 38.1004 98.463 38.8922 98.3169 39.8209L98.2546 40.2203L97.8397 40.2023C97.3524 40.1814 96.8864 40.1704 96.4542 40.1704C95.9229 40.1704 95.4151 40.1814 94.9441 40.2023L94.3372 40.2293L94.4598 39.6511Z" fill="#E0E5E6"/>
<path d="M110.421 40.5568C109.139 40.5772 107.862 40.4089 106.632 40.0575C105.533 39.7347 104.558 39.0992 103.83 38.2322C103.116 37.3828 102.638 36.3685 102.44 35.2865C102.237 34.1599 102.222 33.0087 102.396 31.8774C102.627 30.2485 103.188 28.6808 104.044 27.2651C104.883 25.8624 106.08 24.6965 107.518 23.881C109.114 23.0244 110.914 22.598 112.734 22.6458C113.74 22.64 114.74 22.7917 115.697 23.0952C116.579 23.3614 117.373 23.8529 117.997 24.5191C118.589 25.1902 119.001 25.9944 119.197 26.8597C119.422 27.8075 119.456 28.7888 119.3 29.7495C119.243 30.1377 119.148 30.5196 119.016 30.8899L118.914 31.1964H106.325L106.302 31.3192C106.225 31.7186 106.169 32.0072 106.137 32.2259C105.976 33.2075 106.064 34.2129 106.393 35.1537C106.676 35.9719 107.258 36.6595 108.028 37.0849C108.933 37.5584 109.948 37.7931 110.974 37.7659C112.753 37.6944 114.51 37.3577 116.185 36.7673L117.087 36.4787L116.765 37.3515C116.552 37.9276 116.311 38.6745 116.049 39.5722L115.976 39.8269L115.712 39.8888C114.761 40.1202 113.796 40.2979 112.824 40.421C112.026 40.5118 111.224 40.5571 110.421 40.5568ZM115.734 29.0365C115.778 28.6818 115.793 28.3242 115.781 27.9671C115.755 27.6169 115.676 27.2723 115.547 26.9446C115.423 26.6146 115.221 26.3175 114.959 26.0768C114.666 25.8147 114.317 25.6202 113.937 25.5077C113.467 25.3631 112.977 25.2927 112.484 25.299C111.908 25.2986 111.334 25.3793 110.78 25.5386C110.254 25.6874 109.752 25.9079 109.288 26.1937C108.856 26.4624 108.464 26.7891 108.124 27.1643C107.82 27.4837 107.556 27.837 107.337 28.2167C107.219 28.4344 107.092 28.716 106.958 29.0365H115.734Z" fill="#E0E5E6"/>
<path d="M119.731 39.6601C121.016 33.515 121.936 28.5433 122.467 24.8816L122.717 23.0053L123.132 23.0133C123.682 23.0243 124.146 23.0293 124.512 23.0293C124.933 23.0293 125.405 23.0243 125.914 23.0133L126.485 23.0013L126.196 24.4901C126.264 24.4236 126.329 24.361 126.389 24.3024C126.775 23.9425 127.211 23.6367 127.683 23.3937C128.169 23.1491 128.684 22.9634 129.215 22.8405C129.772 22.7085 130.344 22.6414 130.917 22.6408C131.41 22.6401 131.902 22.6985 132.381 22.8146L132.779 22.9144L132.727 23.3138C132.637 24.0058 132.562 24.7977 132.501 25.6674L132.463 26.2236L131.913 26.0718C131.37 25.9124 130.807 25.826 130.24 25.8152C129.117 25.7936 128.029 26.2046 127.213 26.9595C126.758 27.3702 126.37 27.8463 126.062 28.3715C125.748 28.9173 125.504 29.4993 125.336 30.104C125.117 30.8349 124.825 32.2009 124.481 34.1541C124.229 35.586 123.984 37.1288 123.751 38.7375L123.537 40.2183L123.12 40.2033C122.532 40.1824 122.055 40.1714 121.699 40.1714C121.375 40.1714 120.871 40.1824 120.2 40.2033L119.614 40.2223L119.731 39.6601Z" fill="#E0E5E6"/>
<path d="M138.869 48.002C137.795 48.0027 136.722 47.9481 135.654 47.8382C134.483 47.7067 133.322 47.4992 132.18 47.2171L131.794 47.1243L131.907 45.8541C131.926 45.6424 131.957 45.1661 131.997 44.4382L132.028 43.856L132.598 44.0308C133.734 44.3943 134.894 44.6792 136.071 44.8835C136.924 45.0225 137.786 45.0959 138.65 45.1032C139.487 45.1076 140.319 44.9898 141.12 44.7537C141.716 44.5818 142.277 44.3116 142.78 43.9549C143.146 43.6789 143.457 43.3406 143.7 42.9563C144.1 42.2628 144.402 41.519 144.597 40.7455C144.741 40.2213 144.931 39.3116 145.163 38.0315C144.495 38.706 143.709 39.2586 142.842 39.6631C142.243 39.9395 141.614 40.1479 140.967 40.2842C140.271 40.4359 139.56 40.5122 138.847 40.5119C137.86 40.5209 136.878 40.3777 135.937 40.0875C135.004 39.8018 134.168 39.2748 133.518 38.5625C132.867 37.8501 132.425 36.979 132.24 36.0414C132.01 34.9949 131.975 33.9165 132.138 32.858C132.357 31.3567 132.849 29.9058 133.592 28.5742C134.32 27.2446 135.326 26.0789 136.544 25.1522C137.71 24.2595 139.044 23.5992 140.47 23.209C141.927 22.8262 143.43 22.6368 144.939 22.6458C147.067 22.6868 149.186 22.9096 151.274 23.3118L151.752 23.3967L151.175 25.8292L149.374 34.8291C149.341 35.0508 149.153 36.1532 148.816 38.1084L148.232 41.4475V41.4575C148.09 42.1181 147.892 42.7661 147.641 43.3947L147.636 43.4067C147.427 43.8719 147.175 44.3169 146.882 44.7357C146.608 45.1302 146.287 45.4906 145.924 45.8092C145.556 46.1497 145.151 46.4491 144.715 46.7019C144.267 46.9636 143.791 47.1769 143.295 47.338C142.622 47.5599 141.929 47.722 141.226 47.8223C140.446 47.942 139.658 48.0021 138.869 48.002ZM144.532 25.5915C143.539 25.586 142.551 25.7051 141.59 25.946C140.656 26.1961 139.784 26.6281 139.026 27.2162C138.183 27.8689 137.488 28.6848 136.983 29.6127C136.442 30.5676 136.082 31.6102 135.921 32.6902C135.776 33.5744 135.83 34.4791 136.082 35.3404C136.282 36.0487 136.759 36.6518 137.41 37.0199C138.158 37.4276 139.006 37.6307 139.862 37.6081C140.647 37.6253 141.426 37.4803 142.149 37.1824C142.872 36.8845 143.522 36.4405 144.057 35.8796C144.678 35.2616 145.184 34.5429 145.552 33.7557C145.921 32.9253 146.202 32.06 146.389 31.1734C146.6 30.2887 146.943 28.4983 147.411 25.8512C146.461 25.6821 145.498 25.5945 144.533 25.5895L144.532 25.5915Z" fill="#E0E5E6"/>
<path d="M153.062 35.611L154.383 28.703L155.353 23.0113L157.268 23.0312L159.337 23.0093L159.215 23.5625C158.852 25.2171 158.483 26.9805 158.119 28.8039C157.754 30.6272 157.38 32.6363 157.008 34.7812C156.636 36.9261 156.36 38.6156 156.191 39.8169L156.132 40.2163L155.718 40.2033C155.03 40.1823 154.534 40.1714 154.244 40.1714C153.976 40.1714 153.442 40.1823 152.661 40.2033L152.073 40.2193L153.062 35.611ZM155.815 19.8828C155.991 18.8843 156.121 18.1224 156.193 17.6141L156.251 17.2147L156.668 17.2297C157.257 17.2506 157.792 17.2616 158.254 17.2616C158.834 17.2616 159.363 17.2506 159.827 17.2297L160.423 17.2027L160.302 17.7739C160.233 18.0994 160.09 18.8633 159.874 20.0436L159.805 20.424L159.409 20.417C158.796 20.406 158.298 20.4011 157.877 20.4011C157.455 20.4011 156.933 20.406 156.274 20.417L155.715 20.426L155.815 19.8828Z" fill="#E0E5E6"/>
<path d="M165.169 40.5568C164.313 40.5909 163.459 40.455 162.658 40.1574C162.009 39.8946 161.489 39.398 161.204 38.7704C160.906 38.0016 160.835 37.1662 161 36.3599C161.018 36.2351 161.055 36.0184 161.11 35.7168C161.171 35.3873 161.386 34.2699 161.735 32.5404L163.074 25.8442H160.843L160.977 25.288C161.086 24.8316 161.216 24.2704 161.366 23.3827L161.43 23.0043H163.714C163.844 22.4261 164.02 21.5494 164.238 20.3431L164.294 20.0356L164.609 19.9787C165.695 19.779 166.615 19.5793 167.294 19.4185L167.988 19.2577L167.855 19.9427C167.629 21.114 167.433 22.1775 167.29 23.0053H171.925L171.802 23.5545C171.677 24.1117 171.558 24.7198 171.427 25.4687L171.361 25.8452H166.764L165.083 34.5555L164.967 35.2545C164.856 35.7694 164.856 36.3014 164.967 36.8162C165 36.9394 165.058 37.0546 165.139 37.1547C165.219 37.2547 165.32 37.3373 165.434 37.3974C165.71 37.5373 166.016 37.609 166.326 37.6061C166.608 37.6047 166.889 37.585 167.167 37.5472C167.479 37.5062 168.048 37.3854 168.858 37.1877L169.707 36.981L169.401 37.7798C169.208 38.2931 168.975 38.9881 168.709 39.8448L168.631 40.0975L168.369 40.1554C167.745 40.3021 167.113 40.4124 166.476 40.4859C166.019 40.5378 165.577 40.5568 165.169 40.5568Z" fill="#E0E5E6"/>
<path d="M175.973 40.5568C174.728 40.6138 173.485 40.426 172.316 40.0046C171.465 39.6685 170.778 39.0248 170.4 38.2072C170.045 37.4095 169.929 36.5294 170.067 35.6699C170.138 35.1579 170.294 34.6605 170.528 34.197C170.75 33.7602 171.03 33.3539 171.361 32.9888C171.753 32.5763 172.197 32.2151 172.684 31.9144C173.211 31.5739 173.772 31.2852 174.358 31.0526C174.913 30.8339 175.562 30.6162 176.289 30.4035C177.017 30.1909 178.17 29.9043 179.738 29.5518C180.226 29.4519 180.646 29.3401 180.991 29.2322C181.337 29.1244 181.655 29.0156 181.923 28.9117C182.155 28.8253 182.377 28.7141 182.584 28.5802C182.783 28.4478 182.965 28.2929 183.126 28.1189C183.279 27.961 183.408 27.7828 183.509 27.5896C183.591 27.4305 183.647 27.2596 183.675 27.0834C183.709 26.9081 183.706 26.7278 183.664 26.554C183.622 26.3802 183.544 26.2169 183.433 26.0748C183.17 25.7602 182.808 25.5388 182.403 25.4447C181.797 25.2949 181.173 25.225 180.548 25.237C179.822 25.2395 179.097 25.2943 178.379 25.4008C177.719 25.492 177.065 25.6224 176.421 25.7912C175.866 25.943 175.156 26.1747 174.309 26.4792L173.39 26.8098L173.712 25.9061C173.874 25.4487 174.078 24.7567 174.318 23.8511L174.388 23.5894L174.656 23.5245C175.843 23.2271 177.048 22.9958 178.262 22.8315C179.239 22.7086 180.222 22.6456 181.206 22.6428C182.164 22.6365 183.119 22.7289 184.057 22.9184C184.863 23.0652 185.624 23.3889 186.283 23.865C186.84 24.2608 187.235 24.838 187.396 25.4927C187.521 26.09 187.537 26.7042 187.444 27.307C187.336 28.051 187.094 29.3131 186.729 31.0566C186.363 32.8001 186.039 34.4147 185.768 35.8766C185.497 37.3385 185.275 38.6606 185.108 39.8139L185.05 40.2133L184.633 40.1983C184.045 40.1773 183.561 40.1664 183.194 40.1664C182.859 40.1664 182.377 40.1764 181.755 40.1963L175.992 40.5518L175.973 40.5568ZM182.937 31.1704C182.692 31.306 182.439 31.4251 182.178 31.5269C181.907 31.6338 181.61 31.7356 181.293 31.8265C180.976 31.9174 180.392 32.0771 179.499 32.3058C178.632 32.5275 178.011 32.6982 177.65 32.813H177.641C177.01 32.9884 176.395 33.2152 175.802 33.4911C175.397 33.686 175.017 33.9256 174.668 34.205C174.412 34.4042 174.193 34.6454 174.021 34.918C173.86 35.2026 173.753 35.5136 173.705 35.8357C173.626 36.2503 173.711 36.6789 173.945 37.0339C174.172 37.3737 174.513 37.6258 174.909 37.7469C175.476 37.9115 176.066 37.988 176.657 37.9736C177.13 37.9718 177.603 37.9418 178.072 37.8837C178.766 37.7825 179.449 37.6248 180.116 37.4124C180.682 37.2546 181.259 37.0908 181.835 36.9231L182.208 35.2655L183.008 31.1255L182.937 31.1704Z" fill="#E0E5E6"/>
</g>
<defs>
<clipPath id="clip0_113_35">
<rect width="139.5" height="31" fill="white" transform="translate(48 17)"/>
</clipPath>
</defs>
</svg>
